<svg xmlns="http://www.w3.org/2000/svg" viewBox="0 0 800 400" width="800" height="400">
  <style>
    @keyframes drawLine {
      to { stroke-dashoffset: 0; }
    }
    @keyframes fadeInPoint {
      from { opacity: 0; }
      to { opacity: 1; }
    }
    .data-line-0 {
      stroke-dasharray: 1187;
      stroke-dashoffset: 1187;
      animation: drawLine 2s ease-out forwards;
    }
    .data-point {
      opacity: 0;
      animation: fadeInPoint 0.5s ease-out forwards;
    }
    .chart-bg { fill: #fff; }
    .chart-text { fill: #24292e; }
    .chart-muted { fill: #6a737d; }
    .chart-grid { stroke: #eee; }
    .chart-axis { stroke: #6a737d; }
    @media (prefers-color-scheme: dark) {
      .chart-bg { fill: #0d1117; }
      .chart-text { fill: #e6edf3; }
      .chart-muted { fill: #8b949e; }
      .chart-grid { stroke: #21262d; }
      .chart-axis { stroke: #8b949e; }
    }
  </style>
  <rect width="800" height="400" class="chart-bg" />
  <text x="400" y="14" text-anchor="middle" class="chart-text" font-size="16" font-weight="bold" font-family="-apple-system, BlinkMacSystemFont, 'Segoe UI', Helvetica, Arial, sans-serif">crazytuzi/UnrealCSharp Star History</text>
  
  <g class="grid">
    <line x1="60" y1="350" x2="770" y2="350" class="chart-grid" stroke-opacity="0.3" />
    <text x="52" y="354" text-anchor="end" class="chart-muted" font-size="11" font-family="-apple-system, BlinkMacSystemFont, 'Segoe UI', Helvetica, Arial, sans-serif">0</text>
    <line x1="60" y1="281.350114416476" x2="770" y2="281.350114416476" class="chart-grid" stroke-opacity="0.3" />
    <text x="52" y="285.350114416476" text-anchor="end" class="chart-muted" font-size="11" font-family="-apple-system, BlinkMacSystemFont, 'Segoe UI', Helvetica, Arial, sans-serif">200</text>
    <line x1="60" y1="212.70022883295195" x2="770" y2="212.70022883295195" class="chart-grid" stroke-opacity="0.3" />
    <text x="52" y="216.70022883295195" text-anchor="end" class="chart-muted" font-size="11" font-family="-apple-system, BlinkMacSystemFont, 'Segoe UI', Helvetica, Arial, sans-serif">400</text>
    <line x1="60" y1="144.05034324942793" x2="770" y2="144.05034324942793" class="chart-grid" stroke-opacity="0.3" />
    <text x="52" y="148.05034324942793" text-anchor="end" class="chart-muted" font-size="11" font-family="-apple-system, BlinkMacSystemFont, 'Segoe UI', Helvetica, Arial, sans-serif">600</text>
    <line x1="60" y1="75.4004576659039" x2="770" y2="75.4004576659039" class="chart-grid" stroke-opacity="0.3" />
    <text x="52" y="79.4004576659039" text-anchor="end" class="chart-muted" font-size="11" font-family="-apple-system, BlinkMacSystemFont, 'Segoe UI', Helvetica, Arial, sans-serif">800</text>
  </g>
  <g class="milestones">
    
  </g>
  <g class="x-axis">
    <text x="60" y="370" text-anchor="middle" class="chart-muted" font-size="11" font-family="-apple-system, BlinkMacSystemFont, 'Segoe UI', Helvetica, Arial, sans-serif">2022</text>
    <text x="108.9655172413793" y="370" text-anchor="middle" class="chart-muted" font-size="11" font-family="-apple-system, BlinkMacSystemFont, 'Segoe UI', Helvetica, Arial, sans-serif">2023</text>
    <text x="280.34482758620686" y="370" text-anchor="middle" class="chart-muted" font-size="11" font-family="-apple-system, BlinkMacSystemFont, 'Segoe UI', Helvetica, Arial, sans-serif">2024</text>
    <text x="476.2068965517241" y="370" text-anchor="middle" class="chart-muted" font-size="11" font-family="-apple-system, BlinkMacSystemFont, 'Segoe UI', Helvetica, Arial, sans-serif">2025</text>
    <text x="647.5862068965517" y="370" text-anchor="middle" class="chart-muted" font-size="11" font-family="-apple-system, BlinkMacSystemFont, 'Segoe UI', Helvetica, Arial, sans-serif">2026</text>
  </g>
  <line x1="60" y1="50" x2="60" y2="350" class="chart-axis" stroke-width="1" />
  <line x1="60" y1="350" x2="770" y2="350" class="chart-axis" stroke-width="1" />
  <path d="M60,350 L60,349.6567505720824 C68.16091954022988,349.4279176201373 76.32183908045977,348.97025171624716 84.48275862068965,348.97025171624716 C92.64367816091954,348.97025171624716 100.80459770114942,348.97025171624716 108.9655172413793,348.97025171624716 C117.12643678160919,348.97025171624716 125.28735632183907,348.7986270022883 133.44827586206895,347.94050343249427 C141.60919540229884,347.08237986270024 149.77011494252872,345.1945080091533 157.9310344827586,343.82151029748286 C166.0919540229885,342.44851258581235 174.2528735632184,340.7894736842105 182.41379310344828,339.7025171624714 C190.57471264367817,338.61556064073227 198.73563218390805,339.41647597254007 206.89655172413794,337.29977116704805 C215.05747126436782,335.18306636155603 223.2183908045977,329.862700228833 231.3793103448276,327.00228832951944 C239.54022988505747,324.1418764302059 247.70114942528735,322.0939951891964 255.86206896551724,320.137299771167 C264.0229885057471,318.18060435313765 272.183908045977,319.8368486365179 280.34482758620686,313.61556064073227 C288.50574712643675,307.39427264494657 296.6666666666667,288.15789473684214 304.82758620689657,277.57437070938215 C312.98850574712645,266.9908466819222 321.14942528735634,256.92219679633865 329.3103448275862,250.11441647597255 C337.4712643678161,243.3066361556064 345.632183908046,239.39674547181676 353.7931034482759,236.72768878718534 C361.95402298850576,234.05863210255393 370.11494252873564,236.1214402332847 378.2758620689655,230.5491990846682 C386.4367816091954,224.97695793605172 394.5977011494253,204.4050343249428 402.7586206896552,195.88100686498856 C410.91954022988506,187.35697940503434 419.08045977011494,183.69565217391303 427.2413793103448,179.4050343249428 C435.4022988505747,175.11441647597255 443.5632183908046,172.82608695652175 451.7241379310345,170.13729977116705 C459.88505747126436,167.44851258581235 468.04597701149424,166.8192219679634 476.2068965517241,163.27231121281466 C484.367816091954,159.72540045766593 492.5287356321839,152.8604118993135 500.6896551724138,148.85583524027462 C508.85057471264366,144.8512585812357 517.0114942528736,143.19221967963387 525.1724137931035,139.24485125858124 C533.3333333333334,135.2974828375286 541.4942528735633,128.54691075514873 549.6551724137931,125.1716247139588 C557.816091954023,121.79633867276887 565.9770114942529,120.88100686498855 574.1379310344828,118.99313501144164 C582.2988505747127,117.10526315789473 590.4597701149426,115.84668192219678 598.6206896551724,113.84439359267733 C606.7816091954023,111.84210526315789 614.9425287356322,108.6384439359268 623.1034482758621,106.97940503432497 C631.264367816092,105.32036613272314 639.4252873563219,105.43478260869567 647.5862068965517,103.89016018306637 C655.7471264367816,102.34553775743707 663.9080459770115,99.59954233409611 672.0689655172414,97.7116704805492 C680.2298850574713,95.82379862700229 688.3908045977012,93.93592677345535 696.551724137931,92.56292906178487 C704.7126436781609,91.18993135011439 712.8735632183908,90.73226544622425 721.0344827586207,89.4736842105263 C729.1954022988506,88.21510297482835 737.3563218390805,87.01372997711667 745.5172413793103,85.01144164759722 C753.6781609195402,83.00915331807778 761.8390804597701,79.9771167048055 770,77.45995423340963 L770,350 L60,350 Z" fill="#dfb317" fill-opacity="0.1" />
  <path d="M60,350 L60,349.6567505720824 C68.16091954022988,349.4279176201373 76.32183908045977,348.97025171624716 84.48275862068965,348.97025171624716 C92.64367816091954,348.97025171624716 100.80459770114942,348.97025171624716 108.9655172413793,348.97025171624716 C117.12643678160919,348.97025171624716 125.28735632183907,348.7986270022883 133.44827586206895,347.94050343249427 C141.60919540229884,347.08237986270024 149.77011494252872,345.1945080091533 157.9310344827586,343.82151029748286 C166.0919540229885,342.44851258581235 174.2528735632184,340.7894736842105 182.41379310344828,339.7025171624714 C190.57471264367817,338.61556064073227 198.73563218390805,339.41647597254007 206.89655172413794,337.29977116704805 C215.05747126436782,335.18306636155603 223.2183908045977,329.862700228833 231.3793103448276,327.00228832951944 C239.54022988505747,324.1418764302059 247.70114942528735,322.0939951891964 255.86206896551724,320.137299771167 C264.0229885057471,318.18060435313765 272.183908045977,319.8368486365179 280.34482758620686,313.61556064073227 C288.50574712643675,307.39427264494657 296.6666666666667,288.15789473684214 304.82758620689657,277.57437070938215 C312.98850574712645,266.9908466819222 321.14942528735634,256.92219679633865 329.3103448275862,250.11441647597255 C337.4712643678161,243.3066361556064 345.632183908046,239.39674547181676 353.7931034482759,236.72768878718534 C361.95402298850576,234.05863210255393 370.11494252873564,236.1214402332847 378.2758620689655,230.5491990846682 C386.4367816091954,224.97695793605172 394.5977011494253,204.4050343249428 402.7586206896552,195.88100686498856 C410.91954022988506,187.35697940503434 419.08045977011494,183.69565217391303 427.2413793103448,179.4050343249428 C435.4022988505747,175.11441647597255 443.5632183908046,172.82608695652175 451.7241379310345,170.13729977116705 C459.88505747126436,167.44851258581235 468.04597701149424,166.8192219679634 476.2068965517241,163.27231121281466 C484.367816091954,159.72540045766593 492.5287356321839,152.8604118993135 500.6896551724138,148.85583524027462 C508.85057471264366,144.8512585812357 517.0114942528736,143.19221967963387 525.1724137931035,139.24485125858124 C533.3333333333334,135.2974828375286 541.4942528735633,128.54691075514873 549.6551724137931,125.1716247139588 C557.816091954023,121.79633867276887 565.9770114942529,120.88100686498855 574.1379310344828,118.99313501144164 C582.2988505747127,117.10526315789473 590.4597701149426,115.84668192219678 598.6206896551724,113.84439359267733 C606.7816091954023,111.84210526315789 614.9425287356322,108.6384439359268 623.1034482758621,106.97940503432497 C631.264367816092,105.32036613272314 639.4252873563219,105.43478260869567 647.5862068965517,103.89016018306637 C655.7471264367816,102.34553775743707 663.9080459770115,99.59954233409611 672.0689655172414,97.7116704805492 C680.2298850574713,95.82379862700229 688.3908045977012,93.93592677345535 696.551724137931,92.56292906178487 C704.7126436781609,91.18993135011439 712.8735632183908,90.73226544622425 721.0344827586207,89.4736842105263 C729.1954022988506,88.21510297482835 737.3563218390805,87.01372997711667 745.5172413793103,85.01144164759722 C753.6781609195402,83.00915331807778 761.8390804597701,79.9771167048055 770,77.45995423340963" fill="none" stroke="#dfb317" stroke-width="2.5" class="data-line-0" />
  <g class="points">
    
    <circle cx="60" cy="349.6567505720824" r="4" fill="#dfb317" class="data-point" style="animation-delay: 1.50s" />
    <circle cx="84.48275862068965" cy="348.97025171624716" r="4" fill="#dfb317" class="data-point" style="animation-delay: 1.55s" />
    <circle cx="108.9655172413793" cy="348.97025171624716" r="4" fill="#dfb317" class="data-point" style="animation-delay: 1.60s" />
    <circle cx="133.44827586206895" cy="347.94050343249427" r="4" fill="#dfb317" class="data-point" style="animation-delay: 1.65s" />
    <circle cx="157.9310344827586" cy="343.82151029748286" r="4" fill="#dfb317" class="data-point" style="animation-delay: 1.70s" />
    <circle cx="182.41379310344828" cy="339.7025171624714" r="4" fill="#dfb317" class="data-point" style="animation-delay: 1.75s" />
    <circle cx="206.89655172413794" cy="337.29977116704805" r="4" fill="#dfb317" class="data-point" style="animation-delay: 1.80s" />
    <circle cx="231.3793103448276" cy="327.00228832951944" r="4" fill="#dfb317" class="data-point" style="animation-delay: 1.85s" />
    <circle cx="255.86206896551724" cy="320.137299771167" r="4" fill="#dfb317" class="data-point" style="animation-delay: 1.90s" />
    <circle cx="280.34482758620686" cy="313.61556064073227" r="4" fill="#dfb317" class="data-point" style="animation-delay: 1.95s" />
    <circle cx="304.82758620689657" cy="277.57437070938215" r="4" fill="#dfb317" class="data-point" style="animation-delay: 2.00s" />
    <circle cx="329.3103448275862" cy="250.11441647597255" r="4" fill="#dfb317" class="data-point" style="animation-delay: 2.05s" />
    <circle cx="353.7931034482759" cy="236.72768878718534" r="4" fill="#dfb317" class="data-point" style="animation-delay: 2.10s" />
    <circle cx="378.2758620689655" cy="230.5491990846682" r="4" fill="#dfb317" class="data-point" style="animation-delay: 2.15s" />
    <circle cx="402.7586206896552" cy="195.88100686498856" r="4" fill="#dfb317" class="data-point" style="animation-delay: 2.20s" />
    <circle cx="427.2413793103448" cy="179.4050343249428" r="4" fill="#dfb317" class="data-point" style="animation-delay: 2.25s" />
    <circle cx="451.7241379310345" cy="170.13729977116705" r="4" fill="#dfb317" class="data-point" style="animation-delay: 2.30s" />
    <circle cx="476.2068965517241" cy="163.27231121281466" r="4" fill="#dfb317" class="data-point" style="animation-delay: 2.35s" />
    <circle cx="500.6896551724138" cy="148.85583524027462" r="4" fill="#dfb317" class="data-point" style="animation-delay: 2.40s" />
    <circle cx="525.1724137931035" cy="139.24485125858124" r="4" fill="#dfb317" class="data-point" style="animation-delay: 2.45s" />
    <circle cx="549.6551724137931" cy="125.1716247139588" r="4" fill="#dfb317" class="data-point" style="animation-delay: 2.50s" />
    <circle cx="574.1379310344828" cy="118.99313501144164" r="4" fill="#dfb317" class="data-point" style="animation-delay: 2.55s" />
    <circle cx="598.6206896551724" cy="113.84439359267733" r="4" fill="#dfb317" class="data-point" style="animation-delay: 2.60s" />
    <circle cx="623.1034482758621" cy="106.97940503432497" r="4" fill="#dfb317" class="data-point" style="animation-delay: 2.65s" />
    <circle cx="647.5862068965517" cy="103.89016018306637" r="4" fill="#dfb317" class="data-point" style="animation-delay: 2.70s" />
    <circle cx="672.0689655172414" cy="97.7116704805492" r="4" fill="#dfb317" class="data-point" style="animation-delay: 2.75s" />
    <circle cx="696.551724137931" cy="92.56292906178487" r="4" fill="#dfb317" class="data-point" style="animation-delay: 2.80s" />
    <circle cx="721.0344827586207" cy="89.4736842105263" r="4" fill="#dfb317" class="data-point" style="animation-delay: 2.85s" />
    <circle cx="745.5172413793103" cy="85.01144164759722" r="4" fill="#dfb317" class="data-point" style="animation-delay: 2.90s" />
    <circle cx="770" cy="77.45995423340963" r="4" fill="#dfb317" class="data-point" style="animation-delay: 2.95s" />
  </g>
</svg>